<svg xmlns="http://www.w3.org/2000/svg" version="1.1" xmlns:xlink="http://www.w3.org/1999/xlink" xmlns:svgjs="http://svgjs.com/svgjs" width="450" height="600" preserveAspectRatio="none" viewBox="0 0 450 600"><g mask="url(&quot;#SvgjsMask1258&quot;)" fill="none"><rect width="450" height="600" x="0" y="0" fill="url(#SvgjsLinearGradient1259)"></rect><path d="M245.439,450.247C280.377,450.118,305.475,420.086,321.859,389.228C337.053,360.611,342.6,326.418,325.937,298.631C309.671,271.506,277.067,261.696,245.439,261.791C214.009,261.885,182.038,272.217,165.774,299.112C149.004,326.845,152.919,361.128,168.031,389.798C184.393,420.839,210.35,450.377,245.439,450.247" fill="rgba(255, 255, 255, 0.4)" class="triangle-float2"></path><path d="M458.158,655.888C504.283,658.691,557.474,652.289,579.758,611.807C601.62,572.091,576.493,525.416,550.376,488.359C528.875,457.852,495.454,440.682,458.158,439.272C417.787,437.746,374.268,446.539,353.017,480.898C330.892,516.67,338.054,562.382,359.716,598.436C380.688,633.341,417.512,653.418,458.158,655.888" fill="rgba(255, 255, 255, 0.4)" class="triangle-float1"></path><path d="M127.81 103.46 a134.39 134.39 0 1 0 268.78 0 a134.39 134.39 0 1 0 -268.78 0z" fill="rgba(255, 255, 255, 0.4)" class="triangle-float2"></path><path d="M230.046,133.436C245.245,133.088,259.756,126.179,267.387,113.03C275.046,99.832,273.912,83.758,266.671,70.326C259.001,56.098,246.199,44.356,230.046,43.761C212.95,43.131,196.886,52.571,188.425,67.441C180.053,82.155,180.588,100.493,189.619,114.812C198.102,128.262,214.148,133.8,230.046,133.436" fill="rgba(255, 255, 255, 0.4)" class="triangle-float2"></path><path d="M-32.1 417.81 a127.76 127.76 0 1 0 255.52 0 a127.76 127.76 0 1 0 -255.52 0z" fill="rgba(255, 255, 255, 0.4)" class="triangle-float1"></path><path d="M435.661,269.334C472.479,270.458,508.982,252.047,525.793,219.272C541.493,188.663,527.736,153.791,510.061,124.279C493.022,95.83,468.778,70.486,435.661,68.784C399.752,66.938,364.243,84.487,346.719,115.884C329.572,146.605,336.941,183.605,354.584,214.044C372.165,244.377,400.617,268.264,435.661,269.334" fill="rgba(255, 255, 255, 0.4)" class="triangle-float1"></path><path d="M275.12 178.13 a131.59 131.59 0 1 0 263.18 0 a131.59 131.59 0 1 0 -263.18 0z" fill="rgba(255, 255, 255, 0.4)" class="triangle-float2"></path><path d="M235.516,261.6C268.995,261.582,290.159,229.11,305.617,199.413C319.608,172.535,326.907,141.164,311.912,114.833C296.786,88.272,266.08,76.68,235.516,76.319C204.21,75.949,171.435,85.792,155.927,112.989C140.53,139.992,150.609,172.087,165.284,199.489C181.098,229.017,202.02,261.618,235.516,261.6" fill="rgba(255, 255, 255, 0.4)" class="triangle-float3"></path><path d="M202.743,271.926C231.641,270.439,253.004,248.987,268.383,224.476C285.15,197.754,302.92,165.165,286.713,138.099C270.722,111.393,233.791,112.624,202.743,114.853C176.484,116.738,152.012,126.957,137.349,148.823C120.616,173.776,110.164,205.359,124.259,231.892C139.026,259.69,171.308,273.543,202.743,271.926" fill="rgba(255, 255, 255, 0.4)" class="triangle-float3"></path></g><defs><mask id="SvgjsMask1258"><rect width="450" height="600" fill="#ffffff"></rect></mask><linearGradient x1="-8.33%" y1="6.25%" x2="108.33%" y2="93.75%" gradientUnits="userSpaceOnUse" id="SvgjsLinearGradient1259"><stop stop-color="#0e2a47" offset="0"></stop><stop stop-color="rgba(255, 191, 0, 1)" offset="1"></stop></linearGradient><style>
            @keyframes float1 {
                0%{transform: translate(0, 0)}
                50%{transform: translate(-10px, 0)}
                100%{transform: translate(0, 0)}
            }

            .triangle-float1 {
                animation: float1 5s infinite;
            }

            @keyframes float2 {
                0%{transform: translate(0, 0)}
                50%{transform: translate(-5px, -5px)}
                100%{transform: translate(0, 0)}
            }

            .triangle-float2 {
                animation: float2 4s infinite;
            }

            @keyframes float3 {
                0%{transform: translate(0, 0)}
                50%{transform: translate(0, -10px)}
                100%{transform: translate(0, 0)}
            }

            .triangle-float3 {
                animation: float3 6s infinite;
            }
        </style></defs></svg>