<svg xmlns="http://www.w3.org/2000/svg" version="1.1" xmlns:xlink="http://www.w3.org/1999/xlink" xmlns:svgjs="http://svgjs.com/svgjs" width="423" height="544" preserveAspectRatio="none" viewBox="0 0 423 544"><g mask="url(&quot;#SvgjsMask3258&quot;)" fill="none"><rect width="423" height="544" x="0" y="0" fill="url(#SvgjsLinearGradient3259)"></rect><path d="M444.15 544L0 544 L0 568.97Q46.42 580.14, 35.25 626.56Q-88.67 481.49, 56.4 357.57Q126.44 392.36, 91.65 462.39Q144.94 494.52, 112.80000000000001 547.81Q97.19 496.95, 148.05 481.34Q73.86 386, 169.20000000000002 311.81Q347.04 454.4, 204.45000000000002 632.25Q165.82 558.37, 239.70000000000002 519.74Q231.84 476.63, 274.95000000000005 468.76Q260.13 418.69, 310.20000000000005 403.87Q320.31 378.73, 345.45000000000005 388.83Q325.63 347.86, 366.6 328.04Q491.22 417.41, 401.85 542.04Q377.8 496.84, 423 472.79Q359.39 388.04, 444.15 324.43z" fill="rgba(255, 244, 244, 0)"></path></g><defs><mask id="SvgjsMask3258"><rect width="423" height="544" fill="#ffffff"></rect></mask><linearGradient x1="0%" y1="50%" x2="100%" y2="50%" gradientUnits="userSpaceOnUse" id="SvgjsLinearGradient3259"><stop stop-color="rgba(9, 0, 185, 1)" offset="0"></stop><stop stop-color="rgba(204, 166, 0, 1)" offset="1"></stop></linearGradient></defs></svg>